<svg xmlns="http://www.w3.org/2000/svg" width="3187.5" height="526.799" viewBox="0 0 3187.5 526.799"><switch xmlns="http://www.w3.org/2000/svg" transform="translate(69.785 -229.775) scale(9.86355)" fill="#3668aa"><g i:extraneous="self" xmlns:i="http://ns.adobe.com/AdobeIllustrator/10.0/"><path d="M97.4 62c-.5-2.2-1.2-5-1.8-6.4-.1-.3-.2-.6-.4-1-1-2.7-2.9-7.7-7.5-7.7H70.6c1.7 1.6 2.7 3.6 3.4 5.3h3.5l.6 12.3c.1 1.3 1.1 2.4 2.3 2.5 1.2.1 2.4.2 3.7.2 1.2 0 2.4-.1 3.7-.2 1.3-.1 2.3-1.3 2.3-2.6l.2-7.9c.1.4.3.8.4 1.1.4 1 1 3.3 1.5 5.5.4 1.6 2.1 2.5 3.6 1.9h.1c1.2-.5 1.8-1.8 1.5-3z"/><circle cx="84.2" cy="39.1" r="6.3"/><path d="M52.3 46.8H25c1.7 1.6 2.7 3.7 3.4 5.3h3l1.2 12.2c0 1.3 1 2.4 2.3 2.6 1.2.1 2.4.2 3.6.2 1.2 0 2.5-.1 3.7-.2 1.3-.1 2.3-1.3 2.3-2.6l1.1-12.2h3.2c.7-1.6 1.8-3.7 3.5-5.3z"/><circle cx="38.6" cy="39.1" r="6.3"/><path d="M27.3 55.6c-.1-.3-.2-.6-.4-1-1-2.7-2.9-7.7-7.5-7.7h-7.2c-4.7 0-6.5 5-7.5 7.7-.1.4-.3.7-.4 1C3.7 57 3 59.8 2.5 62c-.3 1.3.4 2.5 1.6 3h.1c1.5.6 3.2-.3 3.6-1.9.5-2.2 1.1-4.6 1.5-5.5.1-.3.3-.7.4-1.1l.2 7.9c0 1.3 1 2.4 2.3 2.6 1.2.1 2.4.2 3.6.2 1.2 0 2.5-.1 3.6-.2 1.3-.1 2.3-1.3 2.3-2.6l.2-7.9c.1.4.3.8.4 1.1.4 1 1 3.3 1.5 5.5.4 1.6 2.1 2.5 3.6 1.9h.1c1.2-.5 1.9-1.8 1.6-3-.5-2.3-1.2-5-1.8-6.4z"/><circle cx="15.8" cy="39.1" r="6.3"/><path d="M72.9 55.6c-.1-.3-.2-.6-.4-1-1-2.7-2.9-7.7-7.5-7.7h-7.2c-4.7 0-6.5 5-7.5 7.7-.1.4-.3.7-.4 1-.6 1.4-1.3 4.2-1.8 6.4-.3 1.3.4 2.5 1.6 3h.1c1.5.6 3.2-.3 3.6-1.9.5-2.2 1.1-4.6 1.5-5.5.1-.3.3-.7.4-1.1l.2 7.9c0 1.3 1 2.4 2.3 2.6 1.2.1 2.4.2 3.6.2 1.2 0 2.5-.1 3.6-.2 1.3-.1 2.3-1.3 2.3-2.6l.2-7.9c.1.4.3.8.4 1.1.4 1 1 3.3 1.5 5.5.4 1.6 2.1 2.5 3.6 1.9h.1c1.2-.5 1.9-1.8 1.6-3-.5-2.3-1.2-5-1.8-6.4z"/><circle cx="61.4" cy="39.1" r="6.3"/></g></switch><path d="M1311.64 351.963c-54.433 0-92.857-36.233-92.857-89.991 0-53.928 38.424-89.824 92.858-89.824 43.817 0 76.679 22.751 85.104 63.702l-44.829 4.887c-5.392-20.729-20.39-30.334-40.783-30.334-26.121 0-43.817 20.56-43.817 51.569 0 30.84 17.696 51.568 43.817 51.568 20.391 0 35.39-9.774 40.783-30.334l44.829 4.887c-8.427 40.95-42.131 63.872-85.104 63.872zm200.376.168c-55.109 0-94.879-33.537-94.879-90.16 0-56.287 39.436-89.824 94.879-89.824 55.78 0 95.047 33.537 95.047 89.824 0 56.625-39.435 90.16-95.047 90.16zm-.506-38.591c28.144 0 47.355-20.56 47.355-51.57s-19.213-51.568-47.355-51.568c-27.133 0-46.176 20.56-46.176 51.569s19.043 51.569 46.176 51.569zm336.887-141.386c37.074 0 61.006 18.875 61.006 54.433v122.18h-48.535v-108.36c0-20.391-12.808-29.323-27.3-29.323-17.359 0-32.693 9.943-32.693 39.94v97.745h-49.04V240.914c0-20.729-12.472-29.829-27.807-29.829-16.852 0-32.526 9.943-32.526 42.468v95.216h-48.365V175.528h48.365v20.39c11.46-15.335 28.987-23.762 50.221-23.762 25.11 0 43.985 9.1 53.086 25.952 12.134-17.358 30.67-25.952 53.591-25.952zm313.455 0c37.074 0 61.006 18.875 61.006 54.433v122.18h-48.535v-108.36c0-20.391-12.808-29.323-27.3-29.323-17.359 0-32.693 9.943-32.693 39.94v97.745h-49.04V240.914c0-20.729-12.472-29.829-27.807-29.829-16.852 0-32.526 9.943-32.526 42.468v95.216h-48.365V175.528h48.365v20.39c11.46-15.335 28.987-23.762 50.221-23.762 25.11 0 43.985 9.1 53.086 25.952 12.134-17.358 30.67-25.952 53.591-25.952zm222.951 3.365h48.535v173.242h-46.007l-1.18-20.897c-12.133 15.336-31.345 24.269-55.108 24.269-41.625 0-64.544-21.74-64.544-59.995V175.519h48.704v106.17c0 22.918 14.325 31.345 31.177 31.345 20.054 0 38.255-10.112 38.424-41.962V175.52zm201.049-3.365c41.625 0 64.544 21.571 64.544 59.995v116.619h-48.704v-106.17c0-23.088-14.325-31.514-31.01-31.514-20.053 0-38.254 10.111-38.59 42.13v95.554h-48.536V175.526h48.535v19.212c12.134-14.325 30.84-22.582 53.759-22.582zm136.335-22.59c-15.335 0-28.144-12.47-28.144-27.974 0-15.336 12.808-27.806 28.144-27.806 15 0 27.806 12.47 27.806 27.806 0 15.504-12.807 27.975-27.806 27.975zm-24.772 199.197V175.519h48.872v173.242h-48.872zm163.637 0c-33.705 0-52.917-19.549-52.917-54.097V212.76h-34.043v-37.244h10.955c18.37 0 28.48-7.078 28.48-33.031v-22.919h43.817v55.95h35.727v37.244h-35.727v76.68c0 15.504 7.584 22.413 20.055 22.413h15.672v36.907h-32.02zm183.016-173.242h49.716l-106.845 254.815h-49.21l39.604-88.643-71.287-166.165h52.917l41.288 113.923z" fill="#1b59a3"/></svg>